<svg id="dappy" xmlns="http://www.w3.org/2000/svg" xmlns:xlink="http://www.w3.org/1999/xlink" viewBox="0 0 530 530"
    shape-rendering="geometricPrecision" text-rendering="geometricPrecision" width="530" height="530">
    <style>
        <![CDATA[
        #dappy-g1_ts {
            animation: dappy-g1_ts__ts 1500ms linear 1 normal forwards
        }

        @keyframes dappy-g1_ts__ts {
            0% {
                transform: translate(250px, 250px) scale(1, 1)
            }

            26.666667% {
                transform: translate(250px, 250px) scale(1, 1)
            }

            73.333333% {
                transform: translate(250px, 250px) scale(0.5, 0.5);
                animation-timing-function: cubic-bezier(0, 0, 0.05, 1.23)
            }

            100% {
                transform: translate(250px, 250px) scale(3, 3)
            }
        }

        #dappy-g1 {
            animation: dappy-g1_c_o 1500ms linear 1 normal forwards
        }

        @keyframes dappy-g1_c_o {
            0% {
                opacity: 1
            }

            73.333333% {
                opacity: 1
            }

            100% {
                opacity: 0
            }
        }

        #dappy-path3_ts {
            animation: dappy-path3_ts__ts 1500ms linear 1 normal forwards
        }

        @keyframes dappy-path3_ts__ts {
            0% {
                transform: translate(165px, 271.501px) scale(1, 1)
            }

            13.333333% {
                transform: translate(165px, 271.501px) scale(1.2, 1.2)
            }

            26.666667% {
                transform: translate(165px, 271.501px) scale(1, 1)
            }

            40% {
                transform: translate(165px, 271.501px) scale(1.2, 1.2)
            }

            53.333333% {
                transform: translate(165px, 271.501px) scale(1, 1);
                animation-timing-function: cubic-bezier(0.175, 0.885, 0.32, 1.275)
            }

            66.666667% {
                transform: translate(165px, 271.501px) scale(1.2, 1.2);
                animation-timing-function: cubic-bezier(0.175, 0.885, 0.32, 1.275)
            }

            80% {
                transform: translate(165px, 271.501px) scale(1, 1);
                animation-timing-function: cubic-bezier(0.175, 0.885, 0.32, 1.275)
            }

            100% {
                transform: translate(165px, 271.501px) scale(1.2, 1.2)
            }
        }

        #dappy-path5_ts {
            animation: dappy-path5_ts__ts 1500ms linear 1 normal forwards
        }

        @keyframes dappy-path5_ts__ts {
            0% {
                transform: translate(359px, 270.806505px) scale(1, 1)
            }

            13.333333% {
                transform: translate(359px, 270.806505px) scale(1.2, 1.2)
            }

            26.666667% {
                transform: translate(359px, 270.806505px) scale(1, 1)
            }

            40% {
                transform: translate(359px, 270.806505px) scale(1.2, 1.2)
            }

            53.333333% {
                transform: translate(359px, 270.806505px) scale(1, 1);
                animation-timing-function: cubic-bezier(0.175, 0.885, 0.32, 1.275)
            }

            66.666667% {
                transform: translate(359px, 270.806505px) scale(1.2, 1.2);
                animation-timing-function: cubic-bezier(0.175, 0.885, 0.32, 1.275)
            }

            80% {
                transform: translate(359px, 270.806505px) scale(1, 1);
                animation-timing-function: cubic-bezier(0.175, 0.885, 0.32, 1.275)
            }

            100% {
                transform: translate(359px, 270.806505px) scale(1.2, 1.2)
            }
        }
        ]]>
    </style>
    <g id="dappy-g1_ts" transform="translate(250,250) scale(1,1)">
        <g id="dappy-g1" transform="translate(-250,-250)">
            <g id="dappy-g2" mask="url(#dappy-mask0)">
                <g id="dappy-g3">
                    <rect id="dappy-rect1" width="148.78" height="1786.53" rx="0" ry="0"
                        transform="matrix(0.904018 0.427495 -0.427495 0.904018 309.318722 -350.467104)"
                        fill="rgb(255,90,157)" stroke="none" stroke-width="1" />
                    <rect id="dappy-rect2" width="161.656" height="1941.13" rx="0" ry="0"
                        transform="matrix(0.904018 0.427495 -0.427495 0.904018 467.6053 -345.085225)"
                        fill="rgb(255,233,34)" stroke="none" stroke-width="1" />
                    <rect id="dappy-rect3" width="179.817" height="2159.21" rx="0" ry="0"
                        transform="matrix(0.904018 0.427495 -0.427495 0.904018 666.440547 -387.71061)"
                        fill="rgb(96,197,229)" stroke="none" stroke-width="1" />
                </g>
                <mask id="dappy-mask0" mask-type="alpha">
                    <path id="dappy-path1"
                        d="M493.04,282.859C493.04,242.218,481.083,84.4307,328.083,60.5287C192.129,39.2851,79.4516,82.0429,50.768,218.31C22.0783,354.577,48.3742,481.28,148.782,493.238C249.196,505.189,277.88,500.407,383.069,495.625C488.258,490.844,493.04,323.499,493.04,282.859Z"
                        transform="matrix(1 0 0 1 0.000001 0.000001)" clip-rule="evenodd" fill="rgb(255,90,157)"
                        fill-rule="evenodd" stroke="none" stroke-width="1" />
                </mask>
            </g>
            <path id="dappy-path2"
                d="M360.968,167C316.238,167,278.111,195.299,263.52,234.972C248.928,195.299,210.802,167,166.065,167C108.734,167,62.2588,213.475,62.2588,270.807C62.2588,328.138,108.734,374.613,166.065,374.613C210.802,374.613,248.928,346.314,263.52,306.642C278.111,346.314,316.238,374.613,360.968,374.613C418.299,374.613,464.774,328.138,464.774,270.807C464.774,213.475,418.299,167,360.968,167Z"
                clip-rule="evenodd" fill="rgb(255,255,255)" fill-rule="evenodd" stroke="none" stroke-width="1" />
            <g id="dappy-path3_ts" transform="translate(165,271.501) scale(1,1)">
                <path id="dappy-path3"
                    d="M130.708,210C106.104,210,91,231.473,91,249.08C91,287.156,134.377,322.505,165,345C195.623,322.497,239,287.156,239,249.08C239,231.471,223.903,210,199.292,210C185.549,210,173.804,220.934,165,231.315C156.188,220.933,144.452,210,130.708,210Z"
                    transform="translate(-165,-277.5)" fill="rgb(255,90,157)" stroke="none" stroke-width="1" />
            </g>
            <path id="dappy-path4"
                d="M247.719,229.838C247.719,246.294,234.379,259.629,217.929,259.629C201.473,259.629,188.139,246.294,188.139,229.838C188.139,213.388,201.473,200.048,217.929,200.048C234.379,200.048,247.719,213.388,247.719,229.838Z"
                clip-rule="evenodd" fill="rgb(255,255,255)" fill-rule="evenodd" stroke="none" stroke-width="1" />
            <g id="dappy-path5_ts" transform="translate(359,270.806505) scale(1,1)">
                <path id="dappy-path5"
                    d="M324.708,204C300.104,204,285,225.474,285,243.081C285,281.157,328.377,316.506,359,339.001C389.623,316.498,433,281.157,433,243.081C433,225.472,417.903,204,393.292,204C379.549,204,367.804,214.935,359,225.316C350.188,214.934,338.452,204,324.708,204Z"
                    transform="translate(-359,-271.500504)" fill="rgb(255,90,157)" stroke="none" stroke-width="1" />
            </g>
            <path id="dappy-path6" d="" fill="none" stroke="rgb(63,87,135)" stroke-width="1.06" />
            <path id="dappy-path7"
                d="M441.719,223.839C441.719,240.295,428.379,253.63,411.929,253.63C395.473,253.63,382.139,240.295,382.139,223.839C382.139,207.389,395.473,194.049,411.929,194.049C428.379,194.049,441.719,207.389,441.719,223.839Z"
                clip-rule="evenodd" fill="rgb(255,255,255)" fill-rule="evenodd" stroke="none" stroke-width="1" />
        </g>
    </g>
</svg>